<svg xmlns="http://www.w3.org/2000/svg" xmlns:xlink="http://www.w3.org/1999/xlink" version="1.1" viewBox="0 0 40 32"><g id="Page-1" fill="none" fill-rule="evenodd" stroke="none" stroke-width="1"><g id="Training-Copy-8" transform="translate(-581.000000, -589.000000)"><g id="Group-5" transform="translate(581.000000, 589.000000)"><g id="Group-2" transform="translate(0.000000, 13.000000)"><rect id="Rectangle-51" width="39" height="19" x="0" y="0" stroke="#FFF" rx="2"/><rect id="Rectangle-52" width="3" height="3" x="3" y="13" fill="#FFF"/><rect id="Rectangle-52-Copy-5" width="3" height="3" x="3" y="3" fill="#FFF"/><rect id="Rectangle-52-Copy-9" width="5" height="3" x="3" y="8" fill="#FFF"/><rect id="Rectangle-52-Copy-12" width="6" height="3" x="30" y="8" fill="#FFF"/><rect id="Rectangle-52-Copy-3" width="3" height="3" x="28" y="13" fill="#FFF"/><rect id="Rectangle-52-Copy" width="3" height="3" x="8" y="13" fill="#FFF"/><rect id="Rectangle-52-Copy-7" width="3" height="3" x="8" y="3" fill="#FFF"/><rect id="Rectangle-52-Copy-15" width="3" height="3" x="13" y="3" fill="#FFF"/><rect id="Rectangle-52-Copy-18" width="3" height="3" x="28" y="3" fill="#FFF"/><rect id="Rectangle-52-Copy-16" width="3" height="3" x="18" y="3" fill="#FFF"/><rect id="Rectangle-52-Copy-20" width="3" height="3" x="23" y="3" fill="#FFF"/><rect id="Rectangle-52-Copy-19" width="3" height="3" x="33" y="3" fill="#FFF"/><rect id="Rectangle-52-Copy-11" width="3" height="3" x="10" y="8" fill="#FFF"/><rect id="Rectangle-52-Copy-13" width="3" height="3" x="15" y="8" fill="#FFF"/><rect id="Rectangle-52-Copy-14" width="3" height="3" x="20" y="8" fill="#FFF"/><rect id="Rectangle-52-Copy-17" width="3" height="3" x="25" y="8" fill="#FFF"/><rect id="Rectangle-52-Copy-4" width="3" height="3" x="33" y="13" fill="#FFF"/><rect id="Rectangle-52-Copy-2" width="13" height="3" x="13" y="13" fill="#FFF"/></g><path id="Path-100" stroke="#FFF" stroke-linecap="round" d="M19.1097832,13 C19.1097832,13 17,7 22.1459623,7 C28.0000004,7 25.1097832,0 25.1097832,0"/></g></g></g></svg>