<svg xmlns="http://www.w3.org/2000/svg" xmlns:xlink="http://www.w3.org/1999/xlink" width="1956" height="4272" version="1.1" viewBox="0 0 1956 4272"><title>Graphics Copy</title><desc>Created with Sketch.</desc><defs><linearGradient id="linearGradient-1" x1="50%" x2="50%" y1="12.864%" y2="100%"><stop offset="0%" stop-color="#1E375C"/><stop offset="100%" stop-color="#26234B"/></linearGradient><linearGradient id="linearGradient-2" x1="50%" x2="50%" y1="0%" y2="100%"><stop offset="0%" stop-color="#1E375C"/><stop offset="100%" stop-color="#00AB8E"/></linearGradient><linearGradient id="linearGradient-3" x1="50%" x2="50%" y1="2.071%" y2="100%"><stop offset="0%" stop-color="#4A90E2" stop-opacity="0"/><stop offset="36.105%" stop-color="#4A90E2" stop-opacity=".748"/><stop offset="51.873%" stop-color="#4A90E2" stop-opacity=".898"/><stop offset="67.367%" stop-color="#4A90E2" stop-opacity=".74"/><stop offset="100%" stop-color="#4990E2" stop-opacity="0"/></linearGradient><linearGradient id="linearGradient-4" x1="50%" x2="50%" y1="1.323%" y2="100%"><stop offset="0%" stop-color="#1A4A64"/><stop offset="100%" stop-color="#039E86"/></linearGradient><linearGradient id="linearGradient-5" x1="50%" x2="52.617%" y1=".603%" y2="99.931%"><stop offset="0%" stop-color="#172F58"/><stop offset="48.495%" stop-color="#154F61"/><stop offset="100%" stop-color="#039882"/></linearGradient><linearGradient id="linearGradient-6" x1="89.355%" x2="0%" y1="-77.204%" y2="26.139%"><stop offset="0%" stop-color="#194C68"/><stop offset="100%" stop-color="#193A57"/></linearGradient><linearGradient id="linearGradient-7" x1="50%" x2="50%" y1="1.323%" y2="89.699%"><stop offset="0%" stop-color="#1A4964"/><stop offset="100%" stop-color="#00A48E"/></linearGradient><linearGradient id="linearGradient-8" x1="50%" x2="50%" y1="0%" y2="97.852%"><stop offset="0%" stop-color="#323E76"/><stop offset="34%" stop-color="#1F3054"/><stop offset="59.539%" stop-color="#1D365A"/><stop offset="100%" stop-color="#059987"/></linearGradient><linearGradient id="linearGradient-9" x1="50%" x2="50%" y1="2.651%" y2="100%"><stop offset="0%" stop-color="#223056" stop-opacity="0"/><stop offset="100%" stop-color="#5A3D5F"/></linearGradient><linearGradient id="linearGradient-10" x1="50%" x2="50%" y1=".893%" y2="100%"><stop offset="0%" stop-color="#1B2A4C"/><stop offset="50.994%" stop-color="#174A62"/><stop offset="100%" stop-color="#068A7C"/></linearGradient><linearGradient id="linearGradient-11" x1="50%" x2="50%" y1="0%" y2="100%"><stop offset="0%" stop-color="#273B65"/><stop offset="15.697%" stop-color="#1E2E54"/><stop offset="50.713%" stop-color="#1A4A5D"/><stop offset="78.324%" stop-color="#0F6E71"/><stop offset="100%" stop-color="#058E7E"/></linearGradient></defs><g id="Page-1" fill="none" fill-rule="evenodd" stroke="none" stroke-width="1"><g id="Graphics-Copy"><g id="tree" fill="#34798B" transform="translate(435.000000, 2118.000000)"><polygon id="Combined-Shape" points="193.354 596.358 200.247 1405.085 169.713 1405.085 174.288 831.352 141.984 806.258 143.996 798.397 174.288 809.252 177.334 594.391 106.386 585.68 0 472.088 22.452 81.352 258.519 0 441.508 172.755 384.1 536.371 241.096 602.22 193.354 596.358"/></g><rect id="Rectangle-35-Copy" width="1980" height="3153.81" x="-23" y="-.722" fill="url(#linearGradient-1)" transform="translate(967.000000, 1576.183212) rotate(-180.000000) translate(-967.000000, -1576.183212)"/><rect id="Rectangle-35" width="1980" height="1472.158" x="-23" y="2814.331" fill="url(#linearGradient-2)"/><rect id="Rectangle-80" width="1980" height="1872.575" x="-23" y="-50" fill="url(#linearGradient-3)" fill-opacity=".3"/><polygon id="Combined-Shape" fill="url(#linearGradient-4)" points="1215.459 3610.756 1207.246 3967.163 1184.628 3952.384 1181.878 3961.811 1207.246 3998.098 1200.073 4263.255 1256 4263.255 1234.277 3610.511 1415.695 3542.938 1372.25 3131.203 1172.094 3051 1078.906 3157.27 1084.805 3221.441 1050 3508.637 1195.459 3610.756"/><path id="Combined-Shape" fill="url(#linearGradient-5)" d="M1388.21589,3175.77308 L1355.19356,3177.50371 L1211.50327,3067.63618 L1158.31029,2610.90643 L1410.00839,2468.86398 L1652.60524,2631.65385 L1660.64002,3064.09304 L1511.50356,3169.31185 L1419.203,3174.14911 L1419.21606,3188.58733 L1481.84676,3177.33403 L1482.51323,3186.60379 L1419.07315,3202.71397 L1431.49164,4264 L1370.73079,4264 L1377.22451,3750.87656 L1307.48328,3737.58628 L1310.59926,3731.11307 L1377.22452,3737.58624 L1388.21589,3175.77308 Z"/><polygon id="Path-33" fill="url(#linearGradient-6)" points="918.121 2678.855 1545.868 2616.102 1149.935 2850.399" opacity=".5" transform="translate(1231.994536, 2733.250440) rotate(114.000000) translate(-1231.994536, -2733.250440)"/><polygon id="Combined-Shape" fill="url(#linearGradient-7)" points="697.691 4272.085 667.157 4272.085 671.732 3698.352 639.428 3673.258 641.44 3665.397 671.732 3676.252 674.778 3461.391 603.83 3452.68 497.444 3339.088 519.896 2948.352 755.963 2867 938.952 3039.755 881.544 3403.371 738.54 3469.22 690.798 3463.358" opacity=".8"/><path id="Combined-Shape" fill="url(#linearGradient-8)" d="M796.859776,1602.80253 L780,4272 L853.194693,4272 L848.930304,3550.43006 L865.432617,3514.56104 L860.4375,3495.19164 L848.930305,3502.13978 L842.226589,2416.10579 L919.66357,2334.92965 L914.841727,2309.50169 L842.226588,2344.61555 L834.510315,1610.12106 L838.324473,1610.86245 L1011.3103,1518.46703 L1130.33713,981.566239 L946.776937,718.817826 L559.275527,903.875608 L582.141807,1409.17532 L686.925276,1581.43343 L796.859776,1602.80253 Z"/><polygon id="Path-68" fill="#019B83" points="367 4286.18 580.575 4091 864.239 4183.83 931.952 4143.4 1144.173 4242.071 1339.523 4180.249 1566.626 4286.536"/><polygon id="Path-69" fill="#03AB92" points="580 4092 689.644 4155.507 736.283 4219.014 869.024 4182.929"/><rect id="Rectangle-35-Copy-2" width="1980" height="1437.722" x="-23" y="-.722" fill="url(#linearGradient-9)" transform="translate(967.000000, 718.139140) rotate(-180.000000) translate(-967.000000, -718.139140)"/><polygon id="Path-69-Copy" fill="#03AB92" points="931.904 4143.081 894.131 4212.781 954.91 4189.532 1061.284 4203.485"/><path id="Combined-Shape" fill="url(#linearGradient-10)" d="M418.818695,2653.28131 L398.530558,4272 L531.999998,4272 L507.407669,2999.53512 L601.648437,2969.12402 L601.648435,2954.50937 L507.407666,2963.19545 L501.093746,2667.6807 L544.722511,2675.3164 L794.271547,2550.30004 L812.887907,2237.79446 L673.758194,1900 L394.825181,1911.01632 L180,2265.42941 L293.660346,2631.37668 L418.818695,2653.28131 Z"/><polygon id="Path-31" fill="#FFF" points="396 1911.746 814.566 2238.504 672.262 1901" opacity=".013"/><polygon id="Path-69-Copy-2" fill="#03AB92" points="1339.552 4179.693 1346.686 4223.419 1382.09 4249.271 1566.081 4286.649"/><polygon id="Path-34" fill="#000" points="861.637 1409.07 1010.898 1518.711 1130.004 983.797 997.977 792 768 1159.287" opacity=".03"/><path id="Combined-Shape" fill="url(#linearGradient-11)" d="M1519.84636,2101.96708 L1532,4272.00004 L1441.09922,4272.00004 L1469.69073,2346.33887 C1469.69073,2346.33887 1398.84928,2318.55934 1371.31073,2308.00001 C1366.05594,2305.98512 1371.31073,2298.61621 1371.31073,2298.61621 L1471.00956,2320.62773 L1473.62882,2103.73736 L1327.68016,2109.32765 L1168.21871,1733.84806 L1252.40236,1303.63672 L1711.63672,1155.85547 L1893.59376,1703.1301 L1647.37508,2097.08233 L1519.84636,2101.96708 Z"/><polygon id="Path-32" fill="#000" points="1330.709 2108.934 1526.646 1930.135 1742.027 1946.932 1647.877 2097.57" opacity=".02"/><polygon id="Path-51" fill="#22355E" points="1169.578 1735.605 1713.246 1156.801 1253.574 1303.363" opacity=".7"/><path id="Moon" fill="#FFF" d="M626.199371,134 C643.925557,144.318675 655.840839,163.524692 655.840839,185.513672 C655.840839,218.409792 629.173264,245.077366 596.277144,245.077366 C582.168167,245.077366 569.204936,240.171845 559,231.97335 C567.792673,237.091696 578.015085,240.023373 588.922227,240.023373 C621.818347,240.023373 648.485921,213.355798 648.485921,180.459678 C648.485921,161.672535 639.787996,144.916901 626.199371,134 Z" opacity=".1"/><rect id="Rectangle-111-Copy-30" width="3" height="3" x="1131" y="749" fill="#FFF" fill-opacity=".1"/><g id="Stars" fill="#FFF" transform="translate(111.000000, 8.000000)"><rect id="Rectangle-111" width="8" height="8" x="1758" y="379" fill-opacity=".11"/><rect id="Rectangle-111-Copy-8" width="8" height="8" x="1477" y="120" fill-opacity=".1"/><rect id="Rectangle-111-Copy-7" width="8" height="8" x="157" y="70" fill-opacity=".19"/><rect id="Rectangle-111-Copy-3" width="8" height="8" x="805" y="240" fill-opacity=".18"/><rect id="Rectangle-111-Copy-18" width="8" height="8" x="476" y="608" fill-opacity=".1"/><rect id="Rectangle-111-Copy-9" width="8" height="8" x="931" y="519" fill-opacity=".1"/><rect id="Rectangle-111-Copy-12" width="8" height="8" x="663" y="5" fill-opacity=".1"/><rect id="Rectangle-111-Copy-14" width="8" height="8" x="1118" y="13" fill-opacity=".1"/><rect id="Rectangle-111-Copy-13" width="8" height="8" x="65" y="31" fill-opacity=".1"/><rect id="Rectangle-111-Copy-11" width="8" height="8" x="1257" y="430" fill-opacity=".1"/><rect id="Rectangle-111-Copy-10" width="8" height="8" x="127" y="408" fill-opacity=".1"/><rect id="Rectangle-111-Copy" width="5" height="5" x="587" y="301" fill-opacity=".1"/><rect id="Rectangle-111-Copy-23" width="5" height="5" x="1052" y="199" fill-opacity=".1"/><rect id="Rectangle-111-Copy-15" width="5" height="5" x="1333" y="204" fill-opacity=".1"/><rect id="Rectangle-111-Copy-16" width="5" height="5" x="1706" y="340" fill-opacity=".1"/><rect id="Rectangle-111-Copy-17" width="5" height="5" x="1627" y="642" fill-opacity=".1"/><rect id="Rectangle-111-Copy-4" width="5" height="5" x="277" y="227" fill-opacity=".1"/><rect id="Rectangle-111-Copy-26" width="5" height="5" x="1778" y="0" fill-opacity=".1"/><rect id="Rectangle-111-Copy-25" width="5" height="5" x="60" y="78" fill-opacity=".24"/><rect id="Rectangle-111-Copy-19" width="5" height="5" x="0" y="351" fill-opacity=".1"/><rect id="Rectangle-111-Copy-2" width="3" height="3" x="584" y="348" fill-opacity=".1"/><rect id="Rectangle-111-Copy-20" width="3" height="3" x="162" y="639" fill-opacity=".1"/><rect id="Rectangle-111-Copy-21" width="3" height="3" x="187" y="605" fill-opacity=".1"/><rect id="Rectangle-111-Copy-22" width="3" height="3" x="1119" y="160" fill-opacity=".1"/><rect id="Rectangle-111-Copy-24" width="3" height="3" x="1154" y="237" fill-opacity=".37"/><rect id="Rectangle-111-Copy-5" width="3" height="3" x="836" y="345" fill-opacity=".1"/><rect id="Rectangle-111-Copy-28" width="3" height="3" x="493" y="165" fill-opacity=".1"/><rect id="Rectangle-111-Copy-29" width="3" height="3" x="511" y="641" fill-opacity=".1"/><rect id="Rectangle-111-Copy-32" width="3" height="3" x="1429" y="578" fill-opacity=".1"/><rect id="Rectangle-111-Copy-31" width="3" height="3" x="1254" y="484" fill-opacity=".1"/><rect id="Rectangle-111-Copy-27" width="3" height="3" x="1429" y="39" fill-opacity=".1"/><rect id="Rectangle-111-Copy-6" width="3" height="3" x="902" y="126" fill-opacity=".1"/></g><polygon id="Path-30" fill="#000" points="543.835 2675.53 793.575 2550.619 227 2417 293.953 2631.865" opacity=".02"/></g></g></svg>